<mxfile host="Electron" agent="Mozilla/5.0 (Macintosh; Intel Mac OS X 10_15_7) AppleWebKit/537.36 (KHTML, like Gecko) draw.io/24.7.5 Chrome/126.0.6478.183 Electron/31.3.0 Safari/537.36" version="24.7.5">
  <diagram name="Seite-1" id="yYh_zpcbor2xlUXS2EVQ">
    <mxGraphModel dx="3274" dy="1156" grid="1" gridSize="10" guides="1" tooltips="1" connect="1" arrows="1" fold="1" page="1" pageScale="1" pageWidth="1200" pageHeight="1600" background="#000000" math="0" shadow="0">
      <root>
        <mxCell id="0" />
        <mxCell id="1" parent="0" />
        <mxCell id="uxZezHx1ZLVVZTIcXvw0-8" value="" style="shape=image;verticalLabelPosition=bottom;labelBackgroundColor=default;verticalAlign=top;aspect=fixed;imageAspect=0;image=data:image/png,iVBORw0KGgoAAAANSUhEUgAAAC4AAAC4CAYAAACcht5pAAAAAXNSR0IArs4c6QAAAIRlWElmTU0AKgAAAAgABQESAAMAAAABAAEAAAEaAAUAAAABAAAASgEbAAUAAAABAAAAUgEoAAMAAAABAAIAAIdpAAQAAAABAAAAWgAAAAAAAACQAAAAAQAAAJAAAAABAAOgAQADAAAAAQABAACgAgAEAAAAAQAAAC6gAwAEAAAAAQAAALgAAAAAHuwXIQAAAAlwSFlzAAAWJQAAFiUBSVIk8AAABdZJREFUeAHtnMuLHUUYxU/dmQSJiEg2uoi6MBgw4EIEX0RMduJCEBGMDxRURHwsEoMi0YVCQBOjWUh0MUl0BFfqH5CAjhICughECMRFNKAoxCi+w0zKUzU9Pbe7+nG/6i8B4Su4uV1fnTp15pe+fetuCrBmBIyAETACRsAIGAEjYASMgBEwAkbACBiBXgL+fVzbK8oUjDLn9U7zM7gaIxz2s7iqV5whOG/BsRJvwOEyZtqZkat3iutVZAj8AWzENA6WU+exyT2EQ2Vf4UKduL8XUwz9ViUb+7FeKQ7rqAfH3XiSkdbXYq0v6rVyflf1VvH7sZq0TxT3djWVxxnMY617GKerA3k9XeLTeLUxdMgWPqhhXKmpEecz+3re3V8z11RHtgUs4Ab3II52aCYa0iM+wts9oUOgKT7bg25wUwnuP8B9vBU2TJSGuqifSNwuGnyr+L1YhUtwnEusaV8mGTmF37HOPYG/kpEJC8OJX4xtXEsSOkRbg8V5E8ZMZYOIF/uQ47xNLkqteyoe/1Cxzm3Gdz3KxuGhxHc2hD7buBJQrS/+sdn7mOzgpH0HQ9+ThDyHXUktFDzeTOqcH32Sgf5CVvC473ANjzWPH/EbXmtc9ld++YTxeqNPzj4mK3jLfiRE2uaewh/1bKFf1MMHud6y9jHiD2frfsTjMDbjVhp6/yHZ1pq7H45Fh1l8yX9vrgxn7GPkxFfgeS4cfiCMN8+v8mdC6PFi/TqOU8d6Vbe4j9la13f15cGB6xoMZ/hD4auGelIqdDPpQLIVTiTjBXlwj7lxA17/wu3qC7Vad/dPvBjnjatS3/HR5Foe/ET8Dbm7eEIcYeg7SfHnxLmj4B7DT2EeJUf4+oGv3dzFi57p4g9nR55yqO3DWQoULuTEFRbVsLDgGhQlHkZcQktDa8Q1KEo8jLiElobWiGtQlHgYcQktDa0R16Ao8TDiEloaWiOuQVHiYcQltDS0RlyDosTDiEtoaWiNuAZFiYcRl9DS0BpxDYoSDyMuoaWhNeIaFCUeRlxCS0NrxDUoSjyMuISWhtaIa1CUeBhxCS0NrRHXoCjxMOISWhpaI65BUeJhxCW0NLRGXIOixMOIS2hpaI24BkWJhxGX0NLQGnENihIPIy6hpaE14hoUJR5GXEJLQ2vENShKPIy4hJaG1ohrUJR4GHEJLQ2tEdegKPEw4hJaGlojrkFR4mHEJbQ0tEZcg6LEw4hLaGlojbgGRYnH/5b4tOSvXNLy2MvLsYKHMY7wPU+q+WKpLn3n4Rq34RyuxN84GE8AERiIift9PBhmJY4x9CzXmeOpS3sF65XSYt5c9FmFb6JvOdp/IQ7O0Ft5FM/q0trhcZ7tdlfZn+Ai6jmvlAa/4Cto8uAelyb+Drv8K1x6ghZ11CfSJt9EtFzICX5geXpx5bAW1+C5pN5UCLqgrzeH/fVSV18c3D2Aj2mYnojq8BIPa7yia7E4Tl2D5hA/5J801FtL4uDRaR7P8n2h4up4eOAIOyq1eieMB121LfA8oeAnatlnCPFRFk6KfLq2mufj7Rb+AYdrdTDcTTzTM9Tra+4h7XB2lqjlEQ9LeLzM1+naao6xmo++nMIeaquhw/zgk9Gyg/OcwjNcNL1fHW5szNFU5/zo0zihu5gdPNp+i3f5nnsi6lF8ive647WPVv/r2nWtI/wG3MAb4LNWQduAx+2k/XnbcF99GHG6x8U9PupbqDJO/ZDQwWtw8BjoX35d+wlPRA26oB/YVIK7R3GKObqf4ctBdxT65UrGlUrwuO5ZvM73kz0ZTvJI0qAb3NSCu0fica5behJtKXQ9sv7hwU+V+hL8Rg0nvW+s19kP+5FNDfWskhrxcvWmfUzY12TsR0rPhgv14Dy08RifMO9U1mI/1ivFYR314EWc7Qy/uI9ZfN8+LGY6+7wEj/uPpX3MgP1IGvcCVPgTbcQP6r6cU4AvQDxbwggYASNgBIyAETACRsAIGAEjYASMgBEwAkMJ/AfGIQ4/PWhBGQAAAABJRU5ErkJggg==;" parent="1" vertex="1">
          <mxGeometry x="-873" y="322" width="46" height="184" as="geometry" />
        </mxCell>
        <mxCell id="uxZezHx1ZLVVZTIcXvw0-17" value="&lt;ul style=&quot;font-size: 15px;&quot;&gt;&lt;li style=&quot;font-size: 15px;&quot;&gt;Production Plan&lt;/li&gt;&lt;li style=&quot;text-align: left; font-size: 15px;&quot;&gt;Stocks&lt;/li&gt;&lt;li style=&quot;text-align: left; font-size: 15px;&quot;&gt;Demand&lt;/li&gt;&lt;li style=&quot;text-align: left; font-size: 15px;&quot;&gt;...&lt;/li&gt;&lt;/ul&gt;" style="text;html=1;align=center;verticalAlign=middle;whiteSpace=wrap;rounded=0;fontColor=#FFFFFF;fontSize=15;" parent="1" vertex="1">
          <mxGeometry x="-817" y="380" width="160" height="60" as="geometry" />
        </mxCell>
        <mxCell id="uxZezHx1ZLVVZTIcXvw0-18" value="&lt;div style=&quot;font-size: 24px;&quot;&gt;PURIS &amp;amp; ecosystem, showing the novelty and value-added process&lt;/div&gt;" style="text;html=1;align=center;verticalAlign=middle;whiteSpace=wrap;rounded=0;fontSize=24;fillColor=#f0a30a;strokeColor=#BD7000;fontColor=#ffffff;" parent="1" vertex="1">
          <mxGeometry x="-1060" y="150" width="1150" height="30" as="geometry" />
        </mxCell>
        <mxCell id="uxZezHx1ZLVVZTIcXvw0-20" value="&lt;font style=&quot;font-size: 18px;&quot;&gt;In addition to improving the traditional management of shortage cases, PURIS enables continuous monitoring of critical parts to proactively prevent supply chain bottlenecks.&lt;/font&gt;" style="text;html=1;align=center;verticalAlign=middle;whiteSpace=wrap;rounded=0;fontColor=#ffffff;fontSize=18;" parent="1" vertex="1">
          <mxGeometry x="-1060" y="640" width="1150" height="70" as="geometry" />
        </mxCell>
        <mxCell id="uxZezHx1ZLVVZTIcXvw0-22" value="&lt;font style=&quot;font-size: 24px;&quot;&gt;Supplier&lt;/font&gt;" style="rounded=0;whiteSpace=wrap;html=1;fillColor=#5a5a5e;strokeWidth=2;fontColor=#ffffff;fontSize=15;verticalAlign=top;" parent="1" vertex="1">
          <mxGeometry x="-1062" y="490" width="424" height="120" as="geometry" />
        </mxCell>
        <mxCell id="uxZezHx1ZLVVZTIcXvw0-11" value="" style="shape=image;verticalLabelPosition=bottom;labelBackgroundColor=default;verticalAlign=top;aspect=fixed;imageAspect=0;image=data:image/png,iVBORw0KGgoAAAANSUhEUgAAAFYAAABWCAYAAABVVmH3AAAAAXNSR0IArs4c6QAAAIRlWElmTU0AKgAAAAgABQESAAMAAAABAAEAAAEaAAUAAAABAAAASgEbAAUAAAABAAAAUgEoAAMAAAABAAIAAIdpAAQAAAABAAAAWgAAAAAAAACQAAAAAQAAAJAAAAABAAOgAQADAAAAAQABAACgAgAEAAAAAQAAAFagAwAEAAAAAQAAAFYAAAAAC6zvcgAAAAlwSFlzAAAWJQAAFiUBSVIk8AAABoJJREFUeAHtm3uIVUUcx11LzUpzM3qwvSgTS9Cy6AEGQlBiZf1R/VH0AImKjAorilC3lxTRgx70wiALCjF7QVlECUVQUVFBgf2hkpkUFdsWZVbb57ucn17PnnPvOTPnbOu9vx98mTMzv/mdmc+dO3N27tlRo9ycgBNwAk7ACTgBJ+AEnIATcAJOwAk4ASewg0DXjstyVwMDA+fQYkaLViu6uro2tvDx6kYCgH0JtbKzG9t00vXuEYOdnLTVzP0rFedM8guR+aSq2z8bC3YrX/VX05iYxpMo62iwo9NQSuQ1G3/K8bfyjp2xMWC7HWzOtKI4aCngqz6BtmPRaK7nZYQ/KCnr2BmbwaR1ETAPR0Xs3dbR2tMjaMaCwmbih1wP2bwSVL0NfkmRJ00JMFVPT6brsjxH6jej7/Lq2708dPOyGWu7fxYn1ZlfVn1bl9UNdhyzdq+2JpgzuLrB6rYdOWsdbM6Miy0OBbtvcuNma+zPiY/P2BKfksEyeFlNDbp9CFk+bVsWOmMFdgAVAWsfQttCzBpYDNg+Trb+yQqalNmMdbBNIKWrBMvApessb/UO1og0S3ku3Y36icjA5blbvYPNI5QqFyj9VmbgUtXbs1bvYLcjaX5hoAxcnrdtbOaf59eW5SGblz0+NQXLxvY3xPqQgy04dQxUU7BJLPmYf8Hw5d1Y97tQ6BFooRsSXwf7hS1kxhqoomAnJRte4U6VcST2Wfh/gqaWaVfUl/gnoDfwP69oG/kNB1htdPp9rFJjsDoT1kH7a+i4SoMTjNgz0ctcfozmlo0/HGDVJ5vlZfs3xJ/BzkHvUfEmOhH1D3GKKCD2MWglIT5Demfi15BwuwxYBnsKeptB6ne02egtdBJajaKN2Eeh5wj0JToffY7mo6WotI14sAz2ePQ6I/sAnYbWotk8dZyBPuI6yoitH0aXE+QrdBH6GgnsLOJrmQmykJ3UvtZFNy91zNoU7iSDnYHzbejcpJHALmaw7yT5qIT4BxPgVrQAjUHrkO73Avf4lzTKQsDqOVavFv1e4M6l/0hgwEcTtxdp1mjj0+axhPutIY024h9IkJvRlWgcWo/uQHozstmhEi7FLQSsZp8Ba3Unm9X2R0WuPwOeQqXWswuRliitcUsZ7Cuk0Ub8/QhyE7oa7Yk2oTvR09xjG2mlFgr2m4K9MLC5SwEDPoxYi9GlSP3RWteLVjHgAdIoI75e0LsBXYv2RluQZuyTxN9KWouVAksn9Yurvj4GrFWnzG8IWGL10NjWuLFc68PSGvc8A45e44g/gVjXoUVoH/QjUvxHif8Haa1WCiw9MUAGrFXnzM/a6cH7ABrZGrcH1xvQ7aiSNS758PUK6Y1I9/0F6QN8CKC/kQ6L1QqWgfQzUL2UPJlUg9Qap0HbGncX18vx20Yaa+O5x/UE0Ye2P9KDvWboA8TvIx1WCwU7hkEcW7CnmiVT0Xqkr6fWuFvQEwy4yjVOj2ETkZ5W7kb3Er/oJot7tVYWrO3ul9ENqYwJsL7yda1xeha9H90D0B9I/1crC9b836fXXxTsuTaiDUgztI41TrP+EbSM+N+TjggzUGU78yKDeLBso5r8F9KXKtboSrsXclZQaQdig41EqBrTLg829oOpq72DrYmsg3WwNRGoKazP2JrAhj5u7dQd/gobT8FVOxUWz6xkZ98k9+TPXp1yhdgzxBk8myCODrEvCAlCm8eIE31IUwlYOqPjuPsCB/Ip7QbBkuqAJjTOGtoOgiWdEhHnWdqOGLD0ZdAESQcrjSZQh6D0DLqEMv0KmmVrKXw4VfFUkr88VX4N+TmpMsvqkHyFZZJ0Jem3aFGqXCdgs1JlwdmqZqx1YAtfo9WWUcrXcglJT0b5yY1+qeuNGf6DoDPK56faNmbXZfjrT2y925vu54LGhrHXvnnFEsxp72BzwMQWO9hYgjntq15je1hTL07dq5u8/v0+XT495deYPSLDX786aM1OxzmysWHqenqGvyZTd0Z5T6ptVLZqsDPpzYqcHuWVZ7mfSqGUZWXizCOAlLZDKSgTJ92+Zb4qsP3cKfQPBL2BYqaD6tA4jYfcihkaR2OJtkrA8ujyJz15PLY3xNEvqlXE2VxFnJjxjI5p7G3zCTjYfDZRNQ42Cl9+49A1dhqPK3Pzw7ZVzbSQ0YSCvYKbSW45BMqC1bsEOlTpRCv6HkUnsvExOwEn4AScgBNwAk7ACTgBJ+AEnED7EPgPtzUGvHcXfl0AAAAASUVORK5CYII=;" parent="1" vertex="1">
          <mxGeometry x="-1042" y="507" width="86" height="86" as="geometry" />
        </mxCell>
        <mxCell id="uxZezHx1ZLVVZTIcXvw0-21" value="Shortage Management" style="rounded=0;whiteSpace=wrap;html=1;fillColor=#5a5a5e;strokeWidth=2;fontColor=#ffffff;fontSize=15;" parent="1" vertex="1">
          <mxGeometry x="-910" y="533" width="120" height="60" as="geometry" />
        </mxCell>
        <mxCell id="uxZezHx1ZLVVZTIcXvw0-23" value=".xls" style="rounded=0;whiteSpace=wrap;html=1;fillColor=#5a5a5e;strokeWidth=2;fontColor=#ffffff;fontSize=15;" parent="1" vertex="1">
          <mxGeometry x="-880" y="380" width="60" height="60" as="geometry" />
        </mxCell>
        <mxCell id="uxZezHx1ZLVVZTIcXvw0-24" value="&lt;font style=&quot;font-size: 24px;&quot;&gt;Customer&lt;/font&gt;" style="rounded=0;whiteSpace=wrap;html=1;fillColor=#5a5a5e;strokeWidth=2;fontColor=#ffffff;fontSize=15;verticalAlign=top;" parent="1" vertex="1">
          <mxGeometry x="-1062" y="210" width="424" height="120" as="geometry" />
        </mxCell>
        <mxCell id="uxZezHx1ZLVVZTIcXvw0-25" value="" style="shape=image;verticalLabelPosition=bottom;labelBackgroundColor=default;verticalAlign=top;aspect=fixed;imageAspect=0;image=data:image/png,iVBORw0KGgoAAAANSUhEUgAAAFYAAABWCAYAAABVVmH3AAAAAXNSR0IArs4c6QAAAIRlWElmTU0AKgAAAAgABQESAAMAAAABAAEAAAEaAAUAAAABAAAASgEbAAUAAAABAAAAUgEoAAMAAAABAAIAAIdpAAQAAAABAAAAWgAAAAAAAACQAAAAAQAAAJAAAAABAAOgAQADAAAAAQABAACgAgAEAAAAAQAAAFagAwAEAAAAAQAAAFYAAAAAC6zvcgAAAAlwSFlzAAAWJQAAFiUBSVIk8AAABoJJREFUeAHtm3uIVUUcx11LzUpzM3qwvSgTS9Cy6AEGQlBiZf1R/VH0AImKjAorilC3lxTRgx70wiALCjF7QVlECUVQUVFBgf2hkpkUFdsWZVbb57ucn17PnnPvOTPnbOu9vx98mTMzv/mdmc+dO3N27tlRo9ycgBNwAk7ACTgBJ+AEnIATcAJOwAk4ASewg0DXjstyVwMDA+fQYkaLViu6uro2tvDx6kYCgH0JtbKzG9t00vXuEYOdnLTVzP0rFedM8guR+aSq2z8bC3YrX/VX05iYxpMo62iwo9NQSuQ1G3/K8bfyjp2xMWC7HWzOtKI4aCngqz6BtmPRaK7nZYQ/KCnr2BmbwaR1ETAPR0Xs3dbR2tMjaMaCwmbih1wP2bwSVL0NfkmRJ00JMFVPT6brsjxH6jej7/Lq2708dPOyGWu7fxYn1ZlfVn1bl9UNdhyzdq+2JpgzuLrB6rYdOWsdbM6Miy0OBbtvcuNma+zPiY/P2BKfksEyeFlNDbp9CFk+bVsWOmMFdgAVAWsfQttCzBpYDNg+Trb+yQqalNmMdbBNIKWrBMvApessb/UO1og0S3ku3Y36icjA5blbvYPNI5QqFyj9VmbgUtXbs1bvYLcjaX5hoAxcnrdtbOaf59eW5SGblz0+NQXLxvY3xPqQgy04dQxUU7BJLPmYf8Hw5d1Y97tQ6BFooRsSXwf7hS1kxhqoomAnJRte4U6VcST2Wfh/gqaWaVfUl/gnoDfwP69oG/kNB1htdPp9rFJjsDoT1kH7a+i4SoMTjNgz0ctcfozmlo0/HGDVJ5vlZfs3xJ/BzkHvUfEmOhH1D3GKKCD2MWglIT5Demfi15BwuwxYBnsKeptB6ne02egtdBJajaKN2Eeh5wj0JToffY7mo6WotI14sAz2ePQ6I/sAnYbWotk8dZyBPuI6yoitH0aXE+QrdBH6GgnsLOJrmQmykJ3UvtZFNy91zNoU7iSDnYHzbejcpJHALmaw7yT5qIT4BxPgVrQAjUHrkO73Avf4lzTKQsDqOVavFv1e4M6l/0hgwEcTtxdp1mjj0+axhPutIY024h9IkJvRlWgcWo/uQHozstmhEi7FLQSsZp8Ba3Unm9X2R0WuPwOeQqXWswuRliitcUsZ7Cuk0Ub8/QhyE7oa7Yk2oTvR09xjG2mlFgr2m4K9MLC5SwEDPoxYi9GlSP3RWteLVjHgAdIoI75e0LsBXYv2RluQZuyTxN9KWouVAksn9Yurvj4GrFWnzG8IWGL10NjWuLFc68PSGvc8A45e44g/gVjXoUVoH/QjUvxHif8Haa1WCiw9MUAGrFXnzM/a6cH7ABrZGrcH1xvQ7aiSNS758PUK6Y1I9/0F6QN8CKC/kQ6L1QqWgfQzUL2UPJlUg9Qap0HbGncX18vx20Yaa+O5x/UE0Ye2P9KDvWboA8TvIx1WCwU7hkEcW7CnmiVT0Xqkr6fWuFvQEwy4yjVOj2ETkZ5W7kb3Er/oJot7tVYWrO3ul9ENqYwJsL7yda1xeha9H90D0B9I/1crC9b836fXXxTsuTaiDUgztI41TrP+EbSM+N+TjggzUGU78yKDeLBso5r8F9KXKtboSrsXclZQaQdig41EqBrTLg829oOpq72DrYmsg3WwNRGoKazP2JrAhj5u7dQd/gobT8FVOxUWz6xkZ98k9+TPXp1yhdgzxBk8myCODrEvCAlCm8eIE31IUwlYOqPjuPsCB/Ip7QbBkuqAJjTOGtoOgiWdEhHnWdqOGLD0ZdAESQcrjSZQh6D0DLqEMv0KmmVrKXw4VfFUkr88VX4N+TmpMsvqkHyFZZJ0Jem3aFGqXCdgs1JlwdmqZqx1YAtfo9WWUcrXcglJT0b5yY1+qeuNGf6DoDPK56faNmbXZfjrT2y925vu54LGhrHXvnnFEsxp72BzwMQWO9hYgjntq15je1hTL07dq5u8/v0+XT495deYPSLDX786aM1OxzmysWHqenqGvyZTd0Z5T6ptVLZqsDPpzYqcHuWVZ7mfSqGUZWXizCOAlLZDKSgTJ92+Zb4qsP3cKfQPBL2BYqaD6tA4jYfcihkaR2OJtkrA8ujyJz15PLY3xNEvqlXE2VxFnJjxjI5p7G3zCTjYfDZRNQ42Cl9+49A1dhqPK3Pzw7ZVzbSQ0YSCvYKbSW45BMqC1bsEOlTpRCv6HkUnsvExOwEn4AScgBNwAk7ACTgBJ+AEnED7EPgPtzUGvHcXfl0AAAAASUVORK5CYII=;" parent="1" vertex="1">
          <mxGeometry x="-1042" y="227" width="86" height="86" as="geometry" />
        </mxCell>
        <mxCell id="uxZezHx1ZLVVZTIcXvw0-26" value="Shortage Management" style="rounded=0;whiteSpace=wrap;html=1;fillColor=#5a5a5e;strokeWidth=2;fontColor=#ffffff;fontSize=15;" parent="1" vertex="1">
          <mxGeometry x="-910" y="253" width="120" height="60" as="geometry" />
        </mxCell>
        <mxCell id="uxZezHx1ZLVVZTIcXvw0-29" value="" style="shape=image;verticalLabelPosition=bottom;labelBackgroundColor=default;verticalAlign=top;aspect=fixed;imageAspect=0;image=data:image/png,iVBORw0KGgoAAAANSUhEUgAAAC4AAAC4CAYAAACcht5pAAAAAXNSR0IArs4c6QAAAIRlWElmTU0AKgAAAAgABQESAAMAAAABAAEAAAEaAAUAAAABAAAASgEbAAUAAAABAAAAUgEoAAMAAAABAAIAAIdpAAQAAAABAAAAWgAAAAAAAACQAAAAAQAAAJAAAAABAAOgAQADAAAAAQABAACgAgAEAAAAAQAAAC6gAwAEAAAAAQAAALgAAAAAHuwXIQAAAAlwSFlzAAAWJQAAFiUBSVIk8AAABdZJREFUeAHtnMuLHUUYxU/dmQSJiEg2uoi6MBgw4EIEX0RMduJCEBGMDxRURHwsEoMi0YVCQBOjWUh0MUl0BFfqH5CAjhICughECMRFNKAoxCi+w0zKUzU9Pbe7+nG/6i8B4Su4uV1fnTp15pe+fetuCrBmBIyAETACRsAIGAEjYASMgBEwAkbACBiBXgL+fVzbK8oUjDLn9U7zM7gaIxz2s7iqV5whOG/BsRJvwOEyZtqZkat3iutVZAj8AWzENA6WU+exyT2EQ2Vf4UKduL8XUwz9ViUb+7FeKQ7rqAfH3XiSkdbXYq0v6rVyflf1VvH7sZq0TxT3djWVxxnMY617GKerA3k9XeLTeLUxdMgWPqhhXKmpEecz+3re3V8z11RHtgUs4Ab3II52aCYa0iM+wts9oUOgKT7bg25wUwnuP8B9vBU2TJSGuqifSNwuGnyr+L1YhUtwnEusaV8mGTmF37HOPYG/kpEJC8OJX4xtXEsSOkRbg8V5E8ZMZYOIF/uQ47xNLkqteyoe/1Cxzm3Gdz3KxuGhxHc2hD7buBJQrS/+sdn7mOzgpH0HQ9+ThDyHXUktFDzeTOqcH32Sgf5CVvC473ANjzWPH/EbXmtc9ld++YTxeqNPzj4mK3jLfiRE2uaewh/1bKFf1MMHud6y9jHiD2frfsTjMDbjVhp6/yHZ1pq7H45Fh1l8yX9vrgxn7GPkxFfgeS4cfiCMN8+v8mdC6PFi/TqOU8d6Vbe4j9la13f15cGB6xoMZ/hD4auGelIqdDPpQLIVTiTjBXlwj7lxA17/wu3qC7Vad/dPvBjnjatS3/HR5Foe/ET8Dbm7eEIcYeg7SfHnxLmj4B7DT2EeJUf4+oGv3dzFi57p4g9nR55yqO3DWQoULuTEFRbVsLDgGhQlHkZcQktDa8Q1KEo8jLiElobWiGtQlHgYcQktDa0R16Ao8TDiEloaWiOuQVHiYcQltDS0RlyDosTDiEtoaWiNuAZFiYcRl9DS0BpxDYoSDyMuoaWhNeIaFCUeRlxCS0NrxDUoSjyMuISWhtaIa1CUeBhxCS0NrRHXoCjxMOISWhpaI65BUeJhxCW0NLRGXIOixMOIS2hpaI24BkWJhxGX0NLQGnENihIPIy6hpaE14hoUJR5GXEJLQ2vENShKPIy4hJaG1ohrUJR4GHEJLQ2tEdegKPEw4hJaGlojrkFR4mHEJbQ0tEZcg6LEw4hLaGlojbgGRYnH/5b4tOSvXNLy2MvLsYKHMY7wPU+q+WKpLn3n4Rq34RyuxN84GE8AERiIift9PBhmJY4x9CzXmeOpS3sF65XSYt5c9FmFb6JvOdp/IQ7O0Ft5FM/q0trhcZ7tdlfZn+Ai6jmvlAa/4Cto8uAelyb+Drv8K1x6ghZ11CfSJt9EtFzICX5geXpx5bAW1+C5pN5UCLqgrzeH/fVSV18c3D2Aj2mYnojq8BIPa7yia7E4Tl2D5hA/5J801FtL4uDRaR7P8n2h4up4eOAIOyq1eieMB121LfA8oeAnatlnCPFRFk6KfLq2mufj7Rb+AYdrdTDcTTzTM9Tra+4h7XB2lqjlEQ9LeLzM1+naao6xmo++nMIeaquhw/zgk9Gyg/OcwjNcNL1fHW5szNFU5/zo0zihu5gdPNp+i3f5nnsi6lF8ive647WPVv/r2nWtI/wG3MAb4LNWQduAx+2k/XnbcF99GHG6x8U9PupbqDJO/ZDQwWtw8BjoX35d+wlPRA26oB/YVIK7R3GKObqf4ctBdxT65UrGlUrwuO5ZvM73kz0ZTvJI0qAb3NSCu0fica5behJtKXQ9sv7hwU+V+hL8Rg0nvW+s19kP+5FNDfWskhrxcvWmfUzY12TsR0rPhgv14Dy08RifMO9U1mI/1ivFYR314EWc7Qy/uI9ZfN8+LGY6+7wEj/uPpX3MgP1IGvcCVPgTbcQP6r6cU4AvQDxbwggYASNgBIyAETACRsAIGAEjYASMgBEwAkMJ/AfGIQ4/PWhBGQAAAABJRU5ErkJggg==;" parent="1" vertex="1">
          <mxGeometry x="-145" y="322" width="46" height="184" as="geometry" />
        </mxCell>
        <mxCell id="uxZezHx1ZLVVZTIcXvw0-30" value="&lt;font style=&quot;font-size: 24px;&quot;&gt;Supplier&lt;/font&gt;" style="rounded=0;whiteSpace=wrap;html=1;fillColor=#5a5a5e;strokeWidth=2;fontColor=#ffffff;fontSize=15;verticalAlign=top;" parent="1" vertex="1">
          <mxGeometry x="-334" y="494" width="424" height="120" as="geometry" />
        </mxCell>
        <mxCell id="uxZezHx1ZLVVZTIcXvw0-31" value="" style="shape=image;verticalLabelPosition=bottom;labelBackgroundColor=default;verticalAlign=top;aspect=fixed;imageAspect=0;image=data:image/png,iVBORw0KGgoAAAANSUhEUgAAAFYAAABWCAYAAABVVmH3AAAAAXNSR0IArs4c6QAAAIRlWElmTU0AKgAAAAgABQESAAMAAAABAAEAAAEaAAUAAAABAAAASgEbAAUAAAABAAAAUgEoAAMAAAABAAIAAIdpAAQAAAABAAAAWgAAAAAAAACQAAAAAQAAAJAAAAABAAOgAQADAAAAAQABAACgAgAEAAAAAQAAAFagAwAEAAAAAQAAAFYAAAAAC6zvcgAAAAlwSFlzAAAWJQAAFiUBSVIk8AAABoJJREFUeAHtm3uIVUUcx11LzUpzM3qwvSgTS9Cy6AEGQlBiZf1R/VH0AImKjAorilC3lxTRgx70wiALCjF7QVlECUVQUVFBgf2hkpkUFdsWZVbb57ucn17PnnPvOTPnbOu9vx98mTMzv/mdmc+dO3N27tlRo9ycgBNwAk7ACTgBJ+AEnIATcAJOwAk4ASewg0DXjstyVwMDA+fQYkaLViu6uro2tvDx6kYCgH0JtbKzG9t00vXuEYOdnLTVzP0rFedM8guR+aSq2z8bC3YrX/VX05iYxpMo62iwo9NQSuQ1G3/K8bfyjp2xMWC7HWzOtKI4aCngqz6BtmPRaK7nZYQ/KCnr2BmbwaR1ETAPR0Xs3dbR2tMjaMaCwmbih1wP2bwSVL0NfkmRJ00JMFVPT6brsjxH6jej7/Lq2708dPOyGWu7fxYn1ZlfVn1bl9UNdhyzdq+2JpgzuLrB6rYdOWsdbM6Miy0OBbtvcuNma+zPiY/P2BKfksEyeFlNDbp9CFk+bVsWOmMFdgAVAWsfQttCzBpYDNg+Trb+yQqalNmMdbBNIKWrBMvApessb/UO1og0S3ku3Y36icjA5blbvYPNI5QqFyj9VmbgUtXbs1bvYLcjaX5hoAxcnrdtbOaf59eW5SGblz0+NQXLxvY3xPqQgy04dQxUU7BJLPmYf8Hw5d1Y97tQ6BFooRsSXwf7hS1kxhqoomAnJRte4U6VcST2Wfh/gqaWaVfUl/gnoDfwP69oG/kNB1htdPp9rFJjsDoT1kH7a+i4SoMTjNgz0ctcfozmlo0/HGDVJ5vlZfs3xJ/BzkHvUfEmOhH1D3GKKCD2MWglIT5Demfi15BwuwxYBnsKeptB6ne02egtdBJajaKN2Eeh5wj0JToffY7mo6WotI14sAz2ePQ6I/sAnYbWotk8dZyBPuI6yoitH0aXE+QrdBH6GgnsLOJrmQmykJ3UvtZFNy91zNoU7iSDnYHzbejcpJHALmaw7yT5qIT4BxPgVrQAjUHrkO73Avf4lzTKQsDqOVavFv1e4M6l/0hgwEcTtxdp1mjj0+axhPutIY024h9IkJvRlWgcWo/uQHozstmhEi7FLQSsZp8Ba3Unm9X2R0WuPwOeQqXWswuRliitcUsZ7Cuk0Ub8/QhyE7oa7Yk2oTvR09xjG2mlFgr2m4K9MLC5SwEDPoxYi9GlSP3RWteLVjHgAdIoI75e0LsBXYv2RluQZuyTxN9KWouVAksn9Yurvj4GrFWnzG8IWGL10NjWuLFc68PSGvc8A45e44g/gVjXoUVoH/QjUvxHif8Haa1WCiw9MUAGrFXnzM/a6cH7ABrZGrcH1xvQ7aiSNS758PUK6Y1I9/0F6QN8CKC/kQ6L1QqWgfQzUL2UPJlUg9Qap0HbGncX18vx20Yaa+O5x/UE0Ye2P9KDvWboA8TvIx1WCwU7hkEcW7CnmiVT0Xqkr6fWuFvQEwy4yjVOj2ETkZ5W7kb3Er/oJot7tVYWrO3ul9ENqYwJsL7yda1xeha9H90D0B9I/1crC9b836fXXxTsuTaiDUgztI41TrP+EbSM+N+TjggzUGU78yKDeLBso5r8F9KXKtboSrsXclZQaQdig41EqBrTLg829oOpq72DrYmsg3WwNRGoKazP2JrAhj5u7dQd/gobT8FVOxUWz6xkZ98k9+TPXp1yhdgzxBk8myCODrEvCAlCm8eIE31IUwlYOqPjuPsCB/Ip7QbBkuqAJjTOGtoOgiWdEhHnWdqOGLD0ZdAESQcrjSZQh6D0DLqEMv0KmmVrKXw4VfFUkr88VX4N+TmpMsvqkHyFZZJ0Jem3aFGqXCdgs1JlwdmqZqx1YAtfo9WWUcrXcglJT0b5yY1+qeuNGf6DoDPK56faNmbXZfjrT2y925vu54LGhrHXvnnFEsxp72BzwMQWO9hYgjntq15je1hTL07dq5u8/v0+XT495deYPSLDX786aM1OxzmysWHqenqGvyZTd0Z5T6ptVLZqsDPpzYqcHuWVZ7mfSqGUZWXizCOAlLZDKSgTJ92+Zb4qsP3cKfQPBL2BYqaD6tA4jYfcihkaR2OJtkrA8ujyJz15PLY3xNEvqlXE2VxFnJjxjI5p7G3zCTjYfDZRNQ42Cl9+49A1dhqPK3Pzw7ZVzbSQ0YSCvYKbSW45BMqC1bsEOlTpRCv6HkUnsvExOwEn4AScgBNwAk7ACTgBJ+AEnED7EPgPtzUGvHcXfl0AAAAASUVORK5CYII=;" parent="1" vertex="1">
          <mxGeometry x="-310" y="511" width="86" height="86" as="geometry" />
        </mxCell>
        <mxCell id="uxZezHx1ZLVVZTIcXvw0-32" value="Shortage Management" style="rounded=0;whiteSpace=wrap;html=1;fillColor=#5a5a5e;strokeWidth=2;fontColor=#ffffff;fontSize=15;" parent="1" vertex="1">
          <mxGeometry x="-182" y="533" width="120" height="60" as="geometry" />
        </mxCell>
        <mxCell id="uxZezHx1ZLVVZTIcXvw0-33" value="&lt;font style=&quot;font-size: 24px;&quot;&gt;Customer&lt;/font&gt;" style="rounded=0;whiteSpace=wrap;html=1;fillColor=#5a5a5e;strokeWidth=2;fontColor=#ffffff;fontSize=15;verticalAlign=top;" parent="1" vertex="1">
          <mxGeometry x="-334" y="214" width="424" height="120" as="geometry" />
        </mxCell>
        <mxCell id="uxZezHx1ZLVVZTIcXvw0-34" value="" style="shape=image;verticalLabelPosition=bottom;labelBackgroundColor=default;verticalAlign=top;aspect=fixed;imageAspect=0;image=data:image/png,iVBORw0KGgoAAAANSUhEUgAAAFYAAABWCAYAAABVVmH3AAAAAXNSR0IArs4c6QAAAIRlWElmTU0AKgAAAAgABQESAAMAAAABAAEAAAEaAAUAAAABAAAASgEbAAUAAAABAAAAUgEoAAMAAAABAAIAAIdpAAQAAAABAAAAWgAAAAAAAACQAAAAAQAAAJAAAAABAAOgAQADAAAAAQABAACgAgAEAAAAAQAAAFagAwAEAAAAAQAAAFYAAAAAC6zvcgAAAAlwSFlzAAAWJQAAFiUBSVIk8AAABoJJREFUeAHtm3uIVUUcx11LzUpzM3qwvSgTS9Cy6AEGQlBiZf1R/VH0AImKjAorilC3lxTRgx70wiALCjF7QVlECUVQUVFBgf2hkpkUFdsWZVbb57ucn17PnnPvOTPnbOu9vx98mTMzv/mdmc+dO3N27tlRo9ycgBNwAk7ACTgBJ+AEnIATcAJOwAk4ASewg0DXjstyVwMDA+fQYkaLViu6uro2tvDx6kYCgH0JtbKzG9t00vXuEYOdnLTVzP0rFedM8guR+aSq2z8bC3YrX/VX05iYxpMo62iwo9NQSuQ1G3/K8bfyjp2xMWC7HWzOtKI4aCngqz6BtmPRaK7nZYQ/KCnr2BmbwaR1ETAPR0Xs3dbR2tMjaMaCwmbih1wP2bwSVL0NfkmRJ00JMFVPT6brsjxH6jej7/Lq2708dPOyGWu7fxYn1ZlfVn1bl9UNdhyzdq+2JpgzuLrB6rYdOWsdbM6Miy0OBbtvcuNma+zPiY/P2BKfksEyeFlNDbp9CFk+bVsWOmMFdgAVAWsfQttCzBpYDNg+Trb+yQqalNmMdbBNIKWrBMvApessb/UO1og0S3ku3Y36icjA5blbvYPNI5QqFyj9VmbgUtXbs1bvYLcjaX5hoAxcnrdtbOaf59eW5SGblz0+NQXLxvY3xPqQgy04dQxUU7BJLPmYf8Hw5d1Y97tQ6BFooRsSXwf7hS1kxhqoomAnJRte4U6VcST2Wfh/gqaWaVfUl/gnoDfwP69oG/kNB1htdPp9rFJjsDoT1kH7a+i4SoMTjNgz0ctcfozmlo0/HGDVJ5vlZfs3xJ/BzkHvUfEmOhH1D3GKKCD2MWglIT5Demfi15BwuwxYBnsKeptB6ne02egtdBJajaKN2Eeh5wj0JToffY7mo6WotI14sAz2ePQ6I/sAnYbWotk8dZyBPuI6yoitH0aXE+QrdBH6GgnsLOJrmQmykJ3UvtZFNy91zNoU7iSDnYHzbejcpJHALmaw7yT5qIT4BxPgVrQAjUHrkO73Avf4lzTKQsDqOVavFv1e4M6l/0hgwEcTtxdp1mjj0+axhPutIY024h9IkJvRlWgcWo/uQHozstmhEi7FLQSsZp8Ba3Unm9X2R0WuPwOeQqXWswuRliitcUsZ7Cuk0Ub8/QhyE7oa7Yk2oTvR09xjG2mlFgr2m4K9MLC5SwEDPoxYi9GlSP3RWteLVjHgAdIoI75e0LsBXYv2RluQZuyTxN9KWouVAksn9Yurvj4GrFWnzG8IWGL10NjWuLFc68PSGvc8A45e44g/gVjXoUVoH/QjUvxHif8Haa1WCiw9MUAGrFXnzM/a6cH7ABrZGrcH1xvQ7aiSNS758PUK6Y1I9/0F6QN8CKC/kQ6L1QqWgfQzUL2UPJlUg9Qap0HbGncX18vx20Yaa+O5x/UE0Ye2P9KDvWboA8TvIx1WCwU7hkEcW7CnmiVT0Xqkr6fWuFvQEwy4yjVOj2ETkZ5W7kb3Er/oJot7tVYWrO3ul9ENqYwJsL7yda1xeha9H90D0B9I/1crC9b836fXXxTsuTaiDUgztI41TrP+EbSM+N+TjggzUGU78yKDeLBso5r8F9KXKtboSrsXclZQaQdig41EqBrTLg829oOpq72DrYmsg3WwNRGoKazP2JrAhj5u7dQd/gobT8FVOxUWz6xkZ98k9+TPXp1yhdgzxBk8myCODrEvCAlCm8eIE31IUwlYOqPjuPsCB/Ip7QbBkuqAJjTOGtoOgiWdEhHnWdqOGLD0ZdAESQcrjSZQh6D0DLqEMv0KmmVrKXw4VfFUkr88VX4N+TmpMsvqkHyFZZJ0Jem3aFGqXCdgs1JlwdmqZqx1YAtfo9WWUcrXcglJT0b5yY1+qeuNGf6DoDPK56faNmbXZfjrT2y925vu54LGhrHXvnnFEsxp72BzwMQWO9hYgjntq15je1hTL07dq5u8/v0+XT495deYPSLDX786aM1OxzmysWHqenqGvyZTd0Z5T6ptVLZqsDPpzYqcHuWVZ7mfSqGUZWXizCOAlLZDKSgTJ92+Zb4qsP3cKfQPBL2BYqaD6tA4jYfcihkaR2OJtkrA8ujyJz15PLY3xNEvqlXE2VxFnJjxjI5p7G3zCTjYfDZRNQ42Cl9+49A1dhqPK3Pzw7ZVzbSQ0YSCvYKbSW45BMqC1bsEOlTpRCv6HkUnsvExOwEn4AScgBNwAk7ACTgBJ+AEnED7EPgPtzUGvHcXfl0AAAAASUVORK5CYII=;" parent="1" vertex="1">
          <mxGeometry x="-310" y="231" width="86" height="86" as="geometry" />
        </mxCell>
        <mxCell id="uxZezHx1ZLVVZTIcXvw0-35" value="Shortage Management" style="rounded=0;whiteSpace=wrap;html=1;fillColor=#5a5a5e;strokeWidth=2;fontColor=#ffffff;fontSize=15;" parent="1" vertex="1">
          <mxGeometry x="-182" y="253" width="120" height="60" as="geometry" />
        </mxCell>
        <mxCell id="uxZezHx1ZLVVZTIcXvw0-5" value="" style="shape=image;verticalLabelPosition=bottom;labelBackgroundColor=default;verticalAlign=top;aspect=fixed;imageAspect=0;image=data:image/png,iVBORw0KGgoAAAANSUhEUgAAAEoAAABACAYAAAC9S+EXAAAAAXNSR0IArs4c6QAAAIRlWElmTU0AKgAAAAgABQESAAMAAAABAAEAAAEaAAUAAAABAAAASgEbAAUAAAABAAAAUgEoAAMAAAABAAIAAIdpAAQAAAABAAAAWgAAAAAAAACQAAAAAQAAAJAAAAABAAOgAQADAAAAAQABAACgAgAEAAAAAQAAAEqgAwAEAAAAAQAAAEAAAAAAZkV8fAAAAAlwSFlzAAAWJQAAFiUBSVIk8AAAE5dJREFUeAHtW3twXcV5391zn3raMsSS9bJlC1yTmIIZoIQAbqcNJUMmnUKnISUJz5C2zDQl6aRhEmAmDNB2MpmGmaaJE1Ie0xL6TxoKhHSSAVobPJhAeBhHxr6yhCTrYcmSpfs6Z7e/39577j336EiWLBn+CJ997zln99tvv/3t93377Z4rIT6gDxBYTQTkagpbiSzzYq5XKLFZGNMihJ4TSg6JNenXZK/Mr0TuarV9X4EyL5i1IpH9KgZzk1DOOoCEW35AsqyaNs8I171PfrTx+VLF+/P9vgBl3jQJMZO9HUN+QEjhnHToSsHI9E+Fo74kL0i9c1L+08DwngJljJHi5bmrhZYPwmQ6K9azvIE9IOby98uda6eW12xl3O8ZUObF/HYhve8IqS4TRq9MayGnIeAOcWHqISmlt0JhS2p+2oEye0+0woLuEbHYrcJbxTExhhnTh1h2i7ww/dySRrsCptMGlNlt0sLJfhG63YdPYgU6Lt6U8cuYp4Up/o28qOk3izOfeu1pAcq8OHsVlvddWMDaTl21ZbYsWdg/CuE+AMAmltn6pOyrCpSNQ8r7PgL1haWl/qT9C9EMi+iIC/EW0qVyZrCEVouxzMIdbxcq9ai8QBYXY1xO3aoAZV6ebROe+CYC9Y1LBqgOXXeXPfKdghCF1UGpMnhjBoVSn0H8WpX8a0VAmd0DaRFbdwss4Z+gIMxiCRRHl+0xWBLSp35M+NQqBvhw99Yd9bNCeLevNH6dMlBmX+7jwvV+DDdrCusX+QwPE2cAHLrZiCvEED7vHRkktt8S8fQ35XnylPKvZQNl9ubPQR70OALKOUseZxNQ2gQ3m0H+dBhuFuVlDlTxoiqW3MtSGa8TT6cfl3fLZSVzSwbKvGwQh7JwMXld9EgX0TONbqhWPgIIbmBa4Ypn4vNqbhEhq1klZ4Q2fywuTu9Gwhqh1Py+TgqUzYfU3I0IjA8uOVDP72d+CXteC5RoaeNwQ8arKErDGnvAM4j646sez14QRt0kL071RXUdLFsQKCOwL9uTu1xI8xT8Ox1stOJ7utlWDL6IyTwIV4xyAgb9LsSzBgB1CDx02zBR+xaAzev4ikD8B9GS/sZiRzrsIpJwPvRHQuqfRVae7kKCtBkgTQEcBv4oIoC0tBx4mF6sCCd0IOUzYjZ1tdwpIzuMBMru8vfOjaH1uigdT0tZAqqkMHgmoARKw9pmAcIJfHK49yMJ+QgQk5E+AMS61SJtdsjfq38lShwiaAQ9gbPGbtkYUbP6RTEMfDMGnsKV1jOMj1sePFdLul89rgSFoJ0N3gHwnI78S0oIjyZoMJ/kn+Howsh759escglXvPNSQszBb17Dinc0ABK7mgYwBwDQ69jenIUxMEnlfRRIwHllhJWw8cQbC8mIBMoGcoHdvzTY+UtoeppoDQZO66GFLEYM+gRxE/0tRLTILQBxWzJUsazHjIintorZ5u6FWkUCJX6J41klp+WF9V8byh3b4lYCxEJiTrGcCeZSLSGckFLzNkSO34VFMm14E5a2TNIY16zO4wAw3SP+S4xgGY6YiZLQBdU0L878eX9+sg750w+01oivjtiQXIPgtWCTZaoJdor6CAaah4sxBuESSYxVZ8Fi9sM95wBuEyyRVjQBK8sskH9FCioVQoKY9rLiWHHW53q9O9XymErVPyjPlZVCv5LXBUfd//zAXzQ66UeOu1ngTtElanBS4ox4PRou2NRnXfqVAftDsI5JDHwU1pFFf1xm6JobcMOThbcBJN10O4DllbHrFLY8ee2KdwtTFe05ijqVxOJZHBrbP7Lxgi9cEIl85GiZHhx6fqCAypiCDTU4eGni5SpwQU2xPt4o6p0VxYVaICn0XMhjPkSw+DyNK7c9QS1ZHnzG41LIwzn9QGESmwsKKJHC6UKdSogTXtltpbyo57LOvX598Mp5iyToQmRjGv4wDZCSKmZ3MAXjWj1HizPgmBEdcMe4XFBMpOzIQhiPzaNeytYCEQYl/BwprFrIODRamBZZXWsoLbF6ccydrYKEJoZoLkCRwZwbRWwV/yrYhiZLkNbGELYCUzqYnxIDuUnkh9WZCrZb8j33fLSmZQKxmPwpd0705yZqQCJADCUEKUTHe8Y6fxUqqzxGAmUzcyV6ldAfrXCWbybRuQcrWwPA/DjloqQ/PyGslYUbLOWZWjTi61VY0ypQDtZzKDeGkDdXkZaGi8WksgD5evuVMIynNv2ysyXT/u5H/LLwNRIocQ8xkHLj5Rt3O83yn2Vo0WRHnC0eIDYiuPs0C18/lBsXM+4yj0to8DxioUWtgOg5GVjQcOF4ZRIJDnXM6gLWgJBnQX+nSU3ousJ1PJ+KLeJ6Cxr64RcOX+k0xZ8OBj9vBu4V6ovjSikiabA/rU0cNyTW2Ni2grEvuelQ/jjifjUOcTKbYylYVRZ3IcIwVCM4GBdBCq+8ijPei5su6bxkofOpeTJKTXE89OrgC6ZoLrVxuszlg6b5njaCmjBzc6GZ44y2J9fWxLWIpqdcxFxoCjlRcCAMC7T4KJJwAH9HRzD5XyMdcergXEW9peuCrnei2kW6Xl9fXxJudal1OQrCDp3R3SeFU3JV5z9Vr1wdad6l+FUq5zMD6kiR6AaHU213KndzXkEchpsfD4DEpZ6JcSRIsB6rd7Kqg0Z+ZnBKQfCsEcTFhoV0iQSqt7c3bwzfXpRIMl2Cy5ngLgEZATv2Z8fn5bUUvyQS6DQcskRZO7AxcXyBmS6znfTiGk8cwcJx1AJfYk/A7AkSrbmI+hoCLhag+kApwwfYrO5V3ISn4wMBrprbSKDIgZzz1/g6EeS2gGHkyBIqJHH2iYCPr0qRvWG6wG0C8686JKw+HQNQDLhcmZZLQ0xF8pNIyEvwM02huzNtIUhhUg34TVFTGQlc6Gr0DsSBGn0dx8GEyq8nYjqEclXiPKCYGpg+kwRIw4em3lmLp68gwFVbsEPmlxgnsi3bOSsdKMUAiYIaKiDA000444ly9GQew5VpIH8Mg45YHWok4JS3eMK6Wb48Q4SpOVayVrp7mPzJ84M19TdgY7+c7OB4oPX+uYI8s/vc9nuNa3hQKYlBWGZ0Sr1FFORrsqG7e9s6Jb0b4HbDJuu2AJzKnkXypBGkscVQvOd/wM4Z5Hj0bGnW/Q4544SVFuAPjvHrCMBieRwrTxq+4FAICHsva3XhRLYR26YswOceNEyMqYpvoAOEBQkTCzh4MFgmxiP2qRqdUUCSiAndMvDyQKtO6OM2VoGPYIEqgwhblJV2zz33QHP5f7Gi+yZarJHKGFXnTDjN8WkspTo4I6ocHAmYT7Q4uqN1Vb+QneMfQSIYzYhfPrG8AKtnYGbGzA+tMAgSU5AkPjPI1Rinaqg8QTUggYXZguSxchUj20zVO3nZrIaMwpRKk44L+QvEhyu7t3dnauQGHmpE+CaXyYhkXIzs1xou6Oq0iisGFHiaLCDIMxAmzKw+IyDH3lr9UV2ToAI/jaORstfUNOEKxRhW2ZTW1JYemF4QpFkAR0BrCNqrekxIMD6CxVpRBEAypuZknTpuMAVoBXyMwgTHkLLnlJIFpyjObzurrfJLmKBF1bgeLaVkepk12iQSEu5g4kpiBfXgdnUiUYqY6LAgm9Swyet6fCqv1K3CUNoqqjAKDqA8GOJr4I7BkMQVqogflzEox9A4oRhU6RbgxTdXSgbuKCAlXqoi7NWQHwb8sFCpdERR1ccmILIUEC2Y2kGw0iqh+BqD/Tqu8pqBwQQxCHoN5VCnIDGQ8VkOZkZ+jnu8Ni/ZucTMGg3hRZMSCWfWj+/gUWbOWyNcUd3LUMICMxsVv8i+VKIrKXptQHObkGNSyuGtIkpijuFm40ZBuypJTG4KoSXHsM1ijI1zNd7R3Xo+Hi1vGShbT55wjLIVe/bsQdDW/4vBHiETybqcpNPhBBAJh3G13QFCIJSJHVMNahSKVRXCQOzMErDAT3ps/ELAl4HgWuph8W9aK1dVm+iWQSLonEa6eg1IcAxY3BRenh4NgmTyXj0mW8qkQipfAom9gn0SQPzL4OBg8M1TBSTyhIGiyZl169a1QN7P3zjw6sc87eG4pUYNulQREdk1Ba8OmW1JhqNciVUEMWCC4FG4JdQSMA6ILmkJA8WhonC43wq5T4mh+s2emQ/xU9GCbsxATSuiewdIJtQJ2eAclQlnjmNhlcmbejidoifAA+waQQ/huLTxvn5kOLND592fFGfVmeT32/Hep9Ig/afy9bXXzhqJKfkHe/fuLf7d39/x06LJbkWX36OIKitmJC7thgozVWeDCiplXOUB2FFYzPEqL8o5KCzTJSsoA0YQEGuYUhA0CwiWdwZoWg/Lg5tX6860Tlor7TmgDWSX+k2rabqc7buoE9bysfQYiYN/NmHsBGra0/+Z92a3f+Wrd/zbs88+m5dJ5waZLPRHgWTb8SuKRg6OfMgV7qd2Pbprl19//bXXd8RT6W/DbC/CPKG4qiksJgb1YpjRagaIFMtkvSZYUu3OEE0JmE1cqyL8biKvdoHgm5jQ1GJgHqx4Ej1XUnPo4WiGhjj/PCTgYrAirb1Dec/73J13frn/2muvFW+99Za5+bNfuKYoxd5Nm9r6GaOjwAp1W9FRrt+8fmxkauTRG66/eedtn7+tmzWPPPHIYGdP25+6xfxVyMcmK9y4UTHlQtk8duAJLFU2fgFHLeucKdUAl3SqA6lYBAGzG9OgpNp7AlSKQyGQ4FaKADWqUR8ku7AUdRrHv7B2wVycs2kJrpb1XO+ahx7ZdXlvb1fmnHPOMdu3b19/w2du+UTWO/HMxo2tFiSfP3yNBIqokp588slcV0/7L6ZyhfyN19/y+cvvutzyP/zvD79+Ijd1vtTyr8FZ3SozQMZVQUucPhd0CtGgFEEQzxA3xpm0EryKEpDG+GUdmnGHcaz8sVwo4yoXjkMq6cxIBGr0lfVnXyNeWvePiWzF9dARWhehx9cOZt7+8I8e2/WS3/fNn7v11qZ4U+yhx77/31u2bMELgBqaZ+fzCsgOoGrKoQzLxNjg2BZX66u+99B3v0O+u+++2/T/un8NDvi+qD3zl9SK5T4hZwJE+I15Qub8AXEwXAR0TjN391mXdAVoOaxY01aq36KokxDDKWFSDNCRxlSSNfkfBa0e2AzvYB13HDd99pYbCkY/39PTcbDEXxob70kcK6hiiXwgRWoaBqrEWvrmgA8fOLw1mUhubdvY9hO/biQz0g1N74eWlxFqv5xXRJEYbCxul2W/AvELm7ZGXdTBAxC/tubKtEOm1ZTvYrYSMQh4KFsWWOpZhyXgVwXj/W1PT3ufP8mDmeGPG+2O//CRH75y1113cSNnJ7+mo/JDFFiRrhdszEaciXJjCpebzt50YGhi6NnhgeE/HDky8jvkb4WPd25s/TSUvxqqDgRlGAehG9ZguArRAkh0QWwnnMbYUQUQ7KoFY/PbWXCQs6l6Nc60wwfJpiN0a+zWEYfytfmQGHVd79M/ePhfP0mQKKuvb7D96JGjn6hrSu7u7Onc58unh/jkj43P5ftqZZnppBZFkDgDYaHsCELNWGasLa/zl3qO9z9dXV32F7dYSeJNqbVXA4z7EIprLYZziTf0Fig65jIIIKfxm4gC1lJEsioxDkHq3SMT5sc7drTZY4Xx8fGG4qz+JP7+5oUNmzccITcnGWQbhoEqj8cXWhmvXxAJlF9Jwf49r+VOKITlwasYHRjljzkumpwef2Lbtm1UXBw+PNmsdPY24Hk729eQlrAznWA6Ad55igV5uTDAwjxYpo1Dfh3mysFm9qGcK7+1ZUvreLlcDWWOXqNc80Zbb9ubPi+v/niomw8Mr6RAWaQuNUDYFqEvCvetisJAkYJsBXiH+8fPk8Jdj/jFNzhoAsD2H+52Uom7sLG4Es921WPAZeBFvhMDTEgDwQj9raUx4GMPySekFS6mywu6WHnKdoPhzvae9gPlfsxwZngndg2zrR2t+9BPjdWVh0W5FVDKZfZCPUELju2kQNnW5QGXO1lQmO2RvQ2Y9LuFdy9RWk1u6N3wCgfCuszBzEWOk7wft2dxflkWJgRiOxgCU7uCER7k1FqMQN6Xf/Toruf8oJzJZLbiwGZjg0ntWbtp0T94rBmvDxp0iNQlqFtNw2BFxL3Pe1KhftsjR45scExih1axVzo61g2xfN++fbEzW1o/hR9/3DsvfpUbhgFiMczNxXb2G4cybz9+xRVX5GkB+/fvb6lPNX/MSST3tbevq1lAyqJW7eIPftUERglC/Op1PfPh2eL0U0ju7FZj7K2x+lyyeBsW+C+VbGW+hVnX1DqGU9XvapX+dldXc+XPM4b7R/9EOaavtbP19ag+V7vsPQGKStP9RvtHL/aUaNrQtf5nfKZVjI2NNcxMZXcCjYsB1WalHK6SczghymAr8tJcfua5s88+e7zMb3BO9vv4YVuxc1Mb/+ogKg6tNkZW3nsGlK/9wMBAOubFLsa5Zq5j4/o9KPd1oEvzPujafvA1/QeHdsSVWDddmN6zdevW8JbDF3/arr6Sp62DhQQPDw+f6ebwu26tD3Vs7vjNQnxD7wx1Yce9zYup1zs7z3g3zOdbJsqDAIfZVvz8vgHlaz5wYKDdSTmteE4Xi8gJHLzKkApxzOWPJ4rYeI8j6z/s84euFYsLlX/wGESA1sRPsOy38X4pAJBnKXy/jfi9P2P+f3bIRfdkpN7BAAAAAElFTkSuQmCC;" parent="1" vertex="1">
          <mxGeometry x="-159" y="378" width="74" height="64" as="geometry" />
        </mxCell>
        <mxCell id="uxZezHx1ZLVVZTIcXvw0-28" value="Monitoring" style="rounded=0;whiteSpace=wrap;html=1;fillColor=#b3cb2d;strokeWidth=2;fontSize=15;strokeColor=#e77b23;fontColor=#ffffff;" parent="1" vertex="1">
          <mxGeometry x="-40" y="257" width="120" height="60" as="geometry" />
        </mxCell>
        <mxCell id="uxZezHx1ZLVVZTIcXvw0-27" value="Monitoring" style="rounded=0;whiteSpace=wrap;html=1;fillColor=#b3cb2d;strokeWidth=2;fontSize=15;strokeColor=#e77b23;fontColor=#ffffff;" parent="1" vertex="1">
          <mxGeometry x="-40" y="537" width="120" height="60" as="geometry" />
        </mxCell>
        <mxCell id="uxZezHx1ZLVVZTIcXvw0-36" value="&lt;ul style=&quot;&quot;&gt;&lt;li style=&quot;&quot;&gt;&lt;li style=&quot;&quot;&gt;Production plan&lt;/li&gt;&lt;li style=&quot;&quot;&gt;Stocks&lt;/li&gt;&lt;li style=&quot;&quot;&gt;Demands&lt;/li&gt;&lt;li style=&quot;&quot;&gt;…&lt;/li&gt;&lt;/li&gt;&lt;/ul&gt;" style="text;html=1;align=left;verticalAlign=middle;whiteSpace=wrap;rounded=0;fontColor=#FFFFFF;fontSize=15;" parent="1" vertex="1">
          <mxGeometry x="-70" y="384" width="160" height="60" as="geometry" />
        </mxCell>
        <mxCell id="uxZezHx1ZLVVZTIcXvw0-37" value="" style="shape=image;verticalLabelPosition=bottom;labelBackgroundColor=default;verticalAlign=top;aspect=fixed;imageAspect=0;image=data:image/png,iVBORw0KGgoAAAANSUhEUgAAADoAAAGMCAYAAACLX7H0AAAAAXNSR0IArs4c6QAAAIRlWElmTU0AKgAAAAgABQESAAMAAAABAAEAAAEaAAUAAAABAAAASgEbAAUAAAABAAAAUgEoAAMAAAABAAIAAIdpAAQAAAABAAAAWgAAAAAAAACQAAAAAQAAAJAAAAABAAOgAQADAAAAAQABAACgAgAEAAAAAQAAADqgAwAEAAAAAQAAAYwAAAAA5UhkcAAAAAlwSFlzAAAWJQAAFiUBSVIk8AAAEdBJREFUeAHlnVlzFEcSxxFgSSAQYE7bG/uy3PcN9pPva7+U3vRd9CQe15d8KXwJsGVkry2fG2shJCN0IoGu/ed4UoykGU1ldh1ZsxVB1ABZ3fmvqsz+TU11d9MmlMXFxd9R/Z0+u5b5+fnDra2tP7vap7bbTA4sLy9/JnVk69atz0vbpLQvCW1qahILhdP5CcXUFQtF5+QndHBw8GuM0CPh1DozNDS0XdgmvfnCwsKnGNllyR8kpBfTe+7mQSlGyVSTkDZv3pzN9F0RqklI6Jz8hD569Ohzt0nwxAqdc+3J32x/WhnRtra2IbhK4CApB+bm5g5LGqSyXRFKDmjiNBdwWCVUE6fonyzidJXQRgaHVUL7+/sJHOZoGgvK6eHh4TaBvQ1TgMMnEmggW4DDSza8r+3FqhElM01CygEc1gnVJKQcwGGd0EYFh3VCAQ53MYN/o2ksKPsBDkcE9tFN1wklDzRxah0cqgrVxCn6xzQ4VBXaiOBQVSjA4RuM0P8NOHysAIeXKcYtlqojSo5qEpJlcKgpVJOQLINDTaG4LjbUikNNoTt27BjGDP5VGG/70EFHhW2imNcUSmfXxKlVcNhQqCZO0T8mwWFDoY0EDhsKBTj0Y4RmaRoLyqmRkZEdAnsbplhx+EgBDq/Y8P6JFxuOKJlpEpJFcKgrVJOQLIJDXaGNAg51hQIc7mEG//Jktjt92osOOuZkGcmorlDyQxOn1sDBSagmTtE/psDBSWgjgIOT0N7eXgKHhzSNBeXU6OjoToG9DVOAw4cKcHjVhvebNjmNKDmrSUiWwMFZqCYhWQIHZ6Gzs7PaFYcmC9PXWejOnTtH4LB0k+PT+C3HBDg4C9XG6ZYtW0xcT0VCNXGKDspPaM7gIBpRgMO3GCEpOJzMFRx6FODwGsV4yiIaUXI0V3AQC9UkJAvgIBaaKziIhQIcRjGDfxLG2x6Aw3FhG6/mYqF0dk2cpgYHlVBNnKJ/koKDSmiO4KAS2t3dTeAwQ9NYUE7cv3+/XWBvwxQrDh8owOH1VN6rRpSc1SSklCsOaqGahJQSHNRCHz58qFlxuIrJkGTFQS20vb39Tzg9SNNYUAgcTgjsvZmqhZIHmjhNBQ6FhGriFP2TBBwKCc0JHAoJBTjcwQhN0zQWlONjY2O7BPY2TAEO7yvA4Y3Y3hcaUXJWk5BSgENhoZqElAIcCgvNBRwKCwU43McM/lEYc7sBDieFbQqZFxZKZ9fEaWxw8CJUE6fon6jg4EUoLjGfSecVOic/oTdu3BiAUDE4PHjwYLe0g5LbY1TfU4DDm7Ec9zJ1yVlNQkKzaNPXm1BNQooZp96EAhy+kE5DCI224uBNaBkcfhCK3QVwOCVsozL3JpTOronTWODgVagmTtE/URKSV6GWwcGr0M7OTgKHKZrGgnIsV3B4VwoOmAlvCTpGZep1RMkDTUJCm+Bx6l2oJiHFAAfvQmdmZggcliXzi8Cho6PDuy+VPgT5HQQx+j1OItqzgDg929LSQr+7BilBelETp6HvqggiFEMi/iIeOiEFEYqpKxYaOiEFEQpw+A6jOikMtqPj4+N7hG3SmyO5vKMAh7dDeR5kRMlZTUIKGafBhEKrqTgNJlQJDldCgUMQYOA4Q4xSUhLtWUBsnwM40C1iXkuwESUvNXEaChyCCoVWcZyGSkhBhVoCh6BCAQ4E9xM0jQXlyMTExNMCexumSC7/UoDDP317H3REyVnNF/EQcRpc6NLSkjghhQD84EKnp6c1Kw7ewSEoMHCcIUZpGVS0ZwFtzjc3N9PT7LyU4CNKXmrAwfdPFVGEQqs4Tn0npChCLYBDlBjFiDZB7APUos2O+Aa0r/xzJJoWK1FGFC5iJi6Lt6Zv377d2wp+LKHJwSGa0NTgEE3o1NSUChy6urq2FIvOv1rHSkalsyEh0Y5t0Z4FtLkAcKDn5xcq0UaUvEwJDlGFQmsycIgqNCU4RI1RjCiBwxhq0WZHgMP+8p1TaKorUUcULiYDh9hCk4FDdKGpwCG6UIDDl5jCS5JIw9LKlaLgEDsZlfQhIdFehdMSsWhzEeBwW9Km0jb6iNLJU4BDEqHQGh0ckghNAQ5JYhQjSuBAd0CJ9ixgl/eB8rNa0FRWkowoXFSBw7Zt29QrDqmERgeHZEJjg0MyoZOTkxpwuKwFh1TJqJRJkJBor8IZSVpBm0sAh1uSNmSbbETp5DHBIalQaI0GDkmF4tdwsVDtb6dJYxQjSuBAz1wR7VkAOBwsPx0WTd1K0hGFi9HAIbXQaOCQXGgscEguFJuRVeDQ09Oz1S06/7JKnYxKXiAh0V6FsxLH0eYywOGma5vkI0qOxgAHE0KhVXw9ReeIvrKZEBoDHEzEKE3fMjjspc+uBY/APVR+H03dJiZGlLzEVBTvcWhtbXWevmaEht4caUZoaHAwIxS3PxM4LNYNtgoDzILLruBgJhmR/0hItFfhXIWWuh/R5grAoa+eoZkRJUdDgoMpodAaDBxMCQ0JDqZilKavEhyeKb8Blw5RtZgaUfJQE6cu4GBOaChwMCc0FDiYEwpw+AozWAoOl/r6+p6qGpzlfzSXjMgvJCTaq3C+7KNThTZXAQ7USVWLuRElLzUJqd5dFSaFQqt3cDApNAQ4mIxRmr6IuVFU++iza8GKQ01wMDmiJEwTpwCHF2p1ilmhvsHBrFDf4GBWKN4N4xUczCYjijUkJNqrcKFW3FX7d7S5BnCgZZlVxeyIkpeahFQLHEwLhVZv4GBaqE9wMB2jNH0RcyOo9tNn1zI3N/dsW1vb3Up70yNKjmriFA+VWQcO5oX6AgfzQn2Bg3mheBstgcNCZbzV+4xZcHFgYKC50s58MiJnkZBor8LFSsfrfUab6wAHume1VMyPKHmpSUhrwSELodBaGByyEOoDHLKIUZq+iLl7qA7QZ9cCcHgO4DBE9lmMKDmqidNKcMhGaFFwyEZoUXDIRijAgX6+V4NDNsmI4hQJicReos+uBW2eBzh8ns2IkjBNQmJwyEootKrBISuh8/PzYqHI1qVtdFnFKE1fxNwwqoP02bXgnTJ/y2pESZgmTpGMXshOqBYcshOqBYfshOKnQXoKs6hgFpzITihufz4tUgljxPVAdkI1b6OlBJadUDjtvL2cR54SWI7XUfEX8Oyuo1gx+AdGSbTKAPv/4EGKf2Q1dTWPdmfAyEooRkcVnxSrWQllQCfHXQvYuPRFIBuhQ0ND2yFO9CgD2M8NDg4Wfniia6d6scNXtBcxOsuSP1gP/pRPns2IakEhO6FaUMhOKBLRdXbatQYorNzYl8XUBSgchjjRPgbY/84/R1DHZCG0CCiQSCpZCIWfalAoqcxFaBFQyEbo8PBwG5wVg0J/f392oPCSBBLIFqDwCY8k1+ZjtCgoZCO0KChkI7QoKGQhFKBwBI6K7pSA/W9rNzySWNMx6gMUSCQV00LhX2FQKKm0LtQHKJgXOjIysgNOSlflZwEK3t7jxJ0UtMaKwssKUPi4llNmY9QXKLBws0J9gYJ5oUhE19hJ1xrX3ZUVhbVtTI4oHD4KR6Wg8OtGz2IwKdQnKPDImhQK57yBgmmhPkHBrNAyKJxiBx3r2d7e3uxA4RUFKHxUr0PMxahvUOAOMCfUNyiYFeobFEwKBSgcg2Oipz3C/heXpz2amrohQMHkiMIp76BgUmgIUDAnFHdB7IRTUlB4CFCg1zTkU7Ci8KoCFD50VWgmGYUCBe4IM0JDgYI1ochD8hUFbFKuuaLAArk2MaLYVEGgIHqfBOx/lrxPwoRQvtuIe9+lxlQX3QNjQiiEBQMF7jQTQkOCghmheEBTO5w5yQ451jPd3d3ZgcJrClDoceyQFbPkUzc0KLDS5EJDg4IVocFBwYRQgMJxOLKHnXGsf9K8sTLp1I0BCtx5SYXCieCgYEJoDFBILnRsbGwXnDjBjjjWBAr0xuh8ClYUXleAwgdahcliNBYocMckExoLFFILVYECXt7ovKLAArlOMqIABUpCu9kJx3qwvb39T0fbdWZJhMYEBVacRChOHg0UkgqNCQrJhCpBYRqgcIedzqIGKLyhAIX3i4qLHqOxQYE7KLrQ2KCQSmh0UEgiFKBAy5r0rUVSfgQo3Jc0qGYbdeqmAAUWHVUoThodFJII1YCC5kmsLK6yjjaieKkUQTyt+knKVGdnZ3ag8KYCFN6T9MpGttFGFE6I41P6G6gJoZr4RBvRj73JhXZ0dGyG01c3cqTK/y3PzMyoVxTWHi/KE6oACqexz0+6TPkDrrvS5LVW38rfo8RoSlBgpVGE4mTiROQzPklsFKGaROQLFKKN6Pj4OP0sSPuIJIVAYUDSILktRuYtBSi869vx4FNX80XbJyhwhwUXqolP34mIxAYVqgWF6elpb6DAIxoUGAAKZwAK0o1P/8Z1V/q7KeupWQcd0ZB3PdRUVOM/ggrVJCL46Q3kKzUHFapJRLgU5SV0YmKCNhrTLcySMglQED/6WXIC77YAhbcVoPCOd0fKBww2dTXxGQIUuOOCCdXEJ5wKEp8kNohQLShgReELHgHfdRBgACicxTVUes/19wAF6U5s5/4IMqKWQIF7IohQTSKCQ8Hik8QGEapJRKFAgUfUe4xOTk7uxcPNpPuBJhCftBKxzI75rr2PKJ4JL34OLqY6ZdtgIqnTvAvVxGeIL9prZ4R3oZr41LzDZa2Qen/3KrSrq2sLhIp/esCKQjBQ4A7wmoweP358DklF+rjX79BGem83++9cex1ROCxekQ8J8pW94FWoJhHBmaCgwGK9CtUkotCgwEK9xagSFMYx3WklIug1lMR6G1GAgiY+g4MCj6g3oZr4jAEK3oVq4jMGKHgVWgaFK3xQx3p5amoqOCiwL16SEUDhPJLKbT6oYz2ANtLHyjoeer2Zlxi1DAos2YtQTSKCA1FAwatQTSKKBQostHCMAhT2YUVhlA/oWD/AdKeHqAUHBfan8NS1DgrehGriMyYoeBOqic+YoOBFqBIUlhDX0UCBhRZKRgCFC0gqt/hgjvUdtJG+qMbx0LXNCiWjHECBpRcSqklEOHFUUPAiVJOIYoMCC1XHKL557Mc1dIQP5FhHBwX2Sz118ZppzYoC7QiLRkMskmq1UE18pgAFFqsWqonPFKBQSGhPT89WCJWuKCxhk3J0UGChqmQEULiIa+hNPohj/S3anHW09W6mmro5gQL3mEqoJhHhhElAoZBQTSLyfdcDC3CtxTEKUDgAULjneoKy3RimO72/Jck1lHwQT93cQKHc0XKhmvhMCQpqoZr4TAkKKqFlULjMjR1rAoUvHW2DmYmSEUDhEpJKn9CbfrQ5J2zj3VyUjHIEBe4xkVBNIsKJkoKCSqgmEaUGBRbqHKPY9HQQ19BhbuhY3y+DgqN5ODPnqdva2qpdUQjnveDIzkI18WkBFLgvnIVq4tMCKIiEKkFhEc9HSQ4KLNQpGQEULiOpfMWNHOtv0Oa8o21wM6epmzMocA86CdUkIpzABCiIhGoSkRVQYKF1YxSgcAigcJcbONZ/Yrrvd7SNYlZ36uYOCtyLdYVq4tMSKDgL1cSnJVBwEtrX1/cUhF5iY8d6Ee9wMQMK7POGyQigcAVJRer012hzgU9gpd4wRhsBFLijNxSqSUQ4sClQcBKqSUTWQIGF1oxR3G/9DK6hQ2zoWI9iuh9wtI1qVnPqtrS0ZL2isLYXawrVxKdFUGDBNYVq4tMiKGwotAAoSL+csx/B66rJCKBwFUlFurHiNtpcDO6x8gRVp24jgQL3S1WhmkSEA5oEhQ2FahKRVVBgoetiFKDwLEDhDzZwrEcw3Q862iYxWzd1Gw0UuFfXCdXEp2VQqClUE5+WQaGq0IGBgWYIla4oLOD18WZBgYWuSkYAhWtIKtLHSd5CG2nn8Pmj1atitBFBgXtylVBNIsKBTINCVaGaRGQdFFjoSoziLXPP4Rr6X/4Px/oepvshR9ukZitTt7m5uaFWFNb26opQTXzmAAoseEWoJj5zAIVVQsugIP3SvDA8PGweFFhoKRkBFK4jqUgvEzfRRrrTk88bvS5N3UYGBe7RklBNIsIBpDOAz5mkLgnVJCK8ozAroUl6N8VJ/wc19ZY1MzntjwAAAABJRU5ErkJggg==;" parent="1" vertex="1">
          <mxGeometry x="-510" y="216" width="58" height="396" as="geometry" />
        </mxCell>
        <mxCell id="uxZezHx1ZLVVZTIcXvw0-38" value="" style="shape=image;verticalLabelPosition=bottom;labelBackgroundColor=default;verticalAlign=top;aspect=fixed;imageAspect=0;image=data:image/png,iVBORw0KGgoAAAANSUhEUgAAADYAAABYCAYAAAC+uwT3AAAAAXNSR0IArs4c6QAAAIRlWElmTU0AKgAAAAgABQESAAMAAAABAAEAAAEaAAUAAAABAAAASgEbAAUAAAABAAAAUgEoAAMAAAABAAIAAIdpAAQAAAABAAAAWgAAAAAAAACQAAAAAQAAAJAAAAABAAOgAQADAAAAAQABAACgAgAEAAAAAQAAADagAwAEAAAAAQAAAFgAAAAAx3kGHQAAAAlwSFlzAAAWJQAAFiUBSVIk8AAABWlJREFUeAHdm12oFVUUx49eywyzsgKDvriWBRVBmb70HEkP9RAEfb4EQfWQ3SgxhB4kqB4swnwoJbQoiPChEkkfIu1LirSIiMqIgqxMIyNNu9pvxdm4mbvnzNl7r7VnjgN/Zs/+WOv/32vPmjkzc3q9wtuxXu8scIq12+nWDgL2b6XuJ8Q9BcYD7aNZhZhnwLE+Jtm/BZaANiZZbxIR8DZwwvz9d9Q/DObqeStoCeLf1AhzIg/Svg4sLEgrzxVkZ4AjwIlo2n9M37uAebLJUgbBBRGifNF7GfckuCiLgNVgiN2YKMyJlGTzJrgBTLPiGW0XMkuBI5m7/xZbE6D9ZAOJNYrC3MT8jc214JromdYagPOtBsKcQNl/BO4EM2dokR7SzoIh+6V2W8xAwampBqLHMYuzwFHgz7BF+TN8jJW8jbmY2bDOZGjq3YeTyZLCLokOc/yAdYj6UIaVFGZ9fu1DzzI3FyWFWUdsOdHa64QV27P4txkmjh3YLhmk4/OG41+MhMltVju/BHA8x0iUXC6ePz59hUsyo0bCfsXumSE5pdalVeJ4lISxv01hFqn+AwS9FBIldaMasUm4yx0GKzG8ZQvD8iKwElwWdvF/rXbEViNq1wB/+U0Iuh+4m9lPKcuPyXN9yxzv9/q4vqn7n7E1x7dvUsbJswHScm3ZAu4G8wPtqaJk3O0mQqpGcbS5gfi/De0xIt+t+jc7hvRuReKDRMpju8vNhPiGcTQTyLIbREir7Wnft2lZZrCQKHmJMTtGTG66vzTGWUPfPbSvAYcD/ZaS3v8K1NtUMYvLFCP2hLDE3nlgNTjUt/2ODfsBVnEsLw80ziF5yDPuu+JYBD4HtC/uvptwGafvAw1hW8Me0mtzzzGt2XwhXYLySCI1Vylav2HnZGV6WXf3WtFaT8YLZcIsrTlLUSvVv5iloGZwjjCNiG0nWl/VcMuqbltYd5KGm0ZO+M8zk4f8Rpvl7GnvkyIGIVZQT14y5GwvY+RgjgH1sQi7MDNaclG/Sp2YZzApYozPTRw7iJbpM4tUYbmp3jxp1Apjqcg3GUu86PrFnIjJz4/XfGMW5VphOJN3uZsQtwvcBvz31TnCXmUZlvttVZ01hDwO/Dv37zl+AMi7ZCn7bTHla6u+ih5DfH0NeblpTX3OsbOUCH95VX3Or1b0j8+uqR+m2jxpNJIgKvLENWaJNfWVL2jOaHSs1CGYPCAgH4DMS/SxiXGh5PA6SeOPRJs6wxB2RWK0tgsDxs4G9wD5BMhF8joddhlWIHOTR8gRa9rLA5lFVbfUXQlWVOtbOYZIyud3r7RCtsZp8Byjb11GrDHTO0TD8rrGNurrhI1HkllFYvghckz57izFr0HTOeXa5fsN+xdxudMAyengnwhh9+b6LDIeQRdEiPqSvmNFiEU6CZ1jMefXBOeWvMHv3BYSNmxG3IKozZ1T1CcUEjZMxI4yfqKrooRXSNgwEVtLtL7osrAp3EgG8u2fS+Wh/QHaU2+Qp/grVgHp3xuEPVaMjJYjBJ3eIOpH2s2e3mrpmGIH0lc3CLtjyqBRqEDULQOEfUIbOWM0tmpWHJQRH0IV2kZjqwqru4ZtRNR7oyEpwJJwhP4tdJh6q09fAywMqhCwG1SvXasMXJUziSD5Y2j1E7x91LX/j7qcaUBA6IPJB3NsdmIswq4H/jKU/yuf1AlyCST8rFjNiI+QCY8k2OzEEF+Yfw3bhqiNnWCYS4Jl90Z/KcqDz4W59jozHjE7+8I2dIaUBhFE/Qnkjcj5GvY6YQMx5wDJiCs7QUiLBIIWgz3gNC2bbdtxWVEy4goy4YG2Can6J1I3gzFVo10wdkKK6sLEWnD4D1I5Wy8o1VgcAAAAAElFTkSuQmCC;" parent="1" vertex="1">
          <mxGeometry x="-964" y="370" width="54" height="88" as="geometry" />
        </mxCell>
      </root>
    </mxGraphModel>
  </diagram>
</mxfile>
